<svg width="20" height="20" viewBox="0 0 20 20" fill="none" xmlns="http://www.w3.org/2000/svg">
<path d="M10 19C14.9706 19 19 14.9706 19 10C19 5.02944 14.9706 1 10 1C5.02944 1 1 5.02944 1 10C1 14.9706 5.02944 19 10 19Z" stroke="#462681" stroke-width="2" stroke-miterlimit="10"/>
<path d="M15 9.5H5C4.72386 9.5 4.5 9.72386 4.5 10C4.5 10.2761 4.72386 10.5 5 10.5H15C15.2761 10.5 15.5 10.2761 15.5 10C15.5 9.72386 15.2761 9.5 15 9.5Z" stroke="#462681" stroke-miterlimit="10"/>
<path d="M10.5 15V5C10.5 4.72386 10.2761 4.5 10 4.5C9.72386 4.5 9.5 4.72386 9.5 5V15C9.5 15.2761 9.72386 15.5 10 15.5C10.2761 15.5 10.5 15.2761 10.5 15Z" stroke="#462681" stroke-miterlimit="10"/>
</svg>
